# ProBuilder 4.5.2
# https://unity3d.com/unity/features/worldbuilding/probuilder
# 18.01.2023 15:42:51

mtllib ./Cube.mtl
o Cube

g Cube
v 0 0 0
v -2 0 0
v 0 0.946991 0
v -2 0.946991 0
v -2 0 -1
v -2 0.946991 -1
v 0 0 -1
v 0 0.946991 -1
v 0 1.946991 0
v -2 1.946991 0
v -1 0.946991 -1
v -2 1.946991 -1
v -1 1.946991 -1
v 0 1.946991 -1
v 0 1.446991 -1
v -2 1.446991 -1
v -1 1.446991 -1
v 0 1.446991 -4
v 0 1.946991 -4
v -1 1.946991 -4
v -1 1.446991 -4
v -2 1.946991 -4
v -2 1.446991 -4
v -1 1.446991 -3
v 0 1.446991 -3
v -1 1.946991 -3
v -2 1.946991 -3
v -2 1.446991 -3
v 0 1.946991 -3
v -1 -0.05300903 -3
v 0 -0.05300903 -3
v -1 -0.05300903 -4
v 0 -0.05300903 -4
v -2 -0.05300903 -3
v -2 -0.05300903 -4

vt 0 0
vt -2 0
vt 0 0.946991
vt -2 0.946991
vt -1 0
vt -1 0.946991
vt 1 0
vt 1 0.946991
vt 0 -1
vt -2 -1
vt 0 1.946991
vt -2 1.946991
vt 2 0
vt 2 0.946991
vt 2 -1
vt 1 -1
vt 1 1.946991
vt 1 1.446991
vt -1 1.446991
vt -1 1.946991
vt 2 1.446991
vt 0 1.446991
vt 2 1.946991
vt -1 -1
vt -1 -3
vt 0 -3
vt 1 -3
vt 2 -3
vt -3 1.946991
vt -3 1.446991
vt -2 -3
vt 3 1.446991
vt 3 1.946991
vt 4 1.446991
vt 4 1.946991
vt 0 -4
vt 1 -4
vt 2 -4
vt -1 -4
vt -4 1.946991
vt -4 1.446991
vt -2 -4
vt -1 -0.05300903
vt 0 -0.05300903
vt 1 -0.05300903
vt 2 -0.05300903
vt 3 -0.05300903
vt 4 -0.05300903
vt -2 1.446991
vt -2 -0.05300903
vt -4 -0.05300903
vt -3 -0.05300903

vn 0 0 1
vn -1 0 0
vn 1 0 0
vn 0 -1 0
vn 0 0 -1
vn 0 1 0

usemtl ProBuilderDefault
f 5/13/5 6/14/5 11/8/5
f 5/13/5 11/8/5 7/1/5
f 8/3/5 7/1/5 11/8/5
f 9/1/6 14/9/6 13/16/6
f 13/16/6 12/15/6 10/13/6
f 9/1/6 13/16/6 10/13/6
f 15/18/3 14/17/3 9/11/3
f 3/3/3 15/18/3 9/11/3
f 3/3/3 8/8/3 15/18/3
f 16/19/2 6/6/2 4/3/2
f 10/11/2 16/19/2 4/3/2
f 10/11/2 12/20/2 16/19/2
f 4/4/1 2/2/1 1/1/1
f 1/1/1 3/3/1 4/4/1
f 6/6/2 5/5/2 2/1/2
f 2/1/2 4/3/2 6/6/2
f 3/3/3 1/1/3 7/7/3
f 7/7/3 8/8/3 3/3/3
f 2/2/4 5/10/4 7/9/4
f 7/9/4 1/1/4 2/2/4
f 10/12/1 4/4/1 3/3/1
f 3/3/1 9/11/1 10/12/1
f 16/21/5 17/18/5 11/8/5
f 11/8/5 6/14/5 16/21/5
f 17/18/5 15/22/5 8/3/5
f 8/3/5 11/8/5 17/18/5
f 20/17/5 19/11/5 18/22/5
f 18/22/5 21/18/5 20/17/5
f 22/23/5 20/17/5 21/18/5
f 21/18/5 23/21/5 22/23/5
f 25/26/4 15/9/4 17/24/4
f 17/24/4 24/25/4 25/26/4
f 27/28/6 12/15/6 13/16/6
f 13/16/6 26/27/6 27/28/6
f 28/30/2 16/19/2 12/20/2
f 12/20/2 27/29/2 28/30/2
f 24/25/4 17/24/4 16/10/4
f 16/10/4 28/31/4 24/25/4
f 29/33/3 14/17/3 15/18/3
f 15/18/3 25/32/3 29/33/3
f 26/27/6 13/16/6 14/9/6
f 14/9/6 29/26/6 26/27/6
f 19/35/3 29/33/3 25/32/3
f 25/32/3 18/34/3 19/35/3
f 20/37/6 26/27/6 29/26/6
f 29/26/6 19/36/6 20/37/6
f 22/38/6 27/28/6 26/27/6
f 26/27/6 20/37/6 22/38/6
f 33/36/4 31/26/4 30/25/4
f 30/25/4 32/39/4 33/36/4
f 23/41/2 28/30/2 27/29/2
f 27/29/2 22/40/2 23/41/2
f 32/39/4 30/25/4 34/31/4
f 34/31/4 35/42/4 32/39/4
f 31/44/1 25/22/1 24/19/1
f 24/19/1 30/43/1 31/44/1
f 35/46/5 23/21/5 21/18/5
f 21/18/5 32/45/5 35/46/5
f 33/48/3 18/34/3 25/32/3
f 25/32/3 31/47/3 33/48/3
f 32/45/5 21/18/5 18/22/5
f 18/22/5 33/44/5 32/45/5
f 30/43/1 24/19/1 28/49/1
f 28/49/1 34/50/1 30/43/1
f 34/52/2 28/30/2 23/41/2
f 23/41/2 35/51/2 34/52/2

